<svg width="1506" height="893" fill="none" xmlns="http://www.w3.org/2000/svg">
    <circle cx="955.287" cy="84.652" r="1" transform="rotate(-12.282 955.287 84.652)" fill="#fff" fill-opacity=".2" />
    <ellipse cx="1.146" cy="1.068" rx="1.146" ry="1.068"
        transform="matrix(-.99938 .03513 -.04046 -.99918 891.376 288.133)" fill="#fff" fill-opacity=".2" />
    <circle cx="428.076" cy="282.695" r="1" transform="rotate(-128.23 428.076 282.695)" fill="#fff" fill-opacity=".2" />
    <circle cx="461.404" cy="438.404" r="1" transform="rotate(-128.23 461.404 438.404)" fill="#fff" fill-opacity=".2" />
    <circle cx="1297.4" cy="49.399" r="1" transform="rotate(53.367 1297.4 49.4)" fill="#fff" fill-opacity=".2" />
    <circle cx="1443.4" cy="264.399" r="1" transform="rotate(53.367 1443.4 264.399)" fill="#fff" fill-opacity=".2" />
    <circle cx="1409.4" cy="140.398" r="1" transform="rotate(-126.413 1409.4 140.398)" fill="#fff" fill-opacity=".2" />
    <circle cx="1307.4" cy="159.399" r="1" transform="rotate(53.367 1307.4 159.399)" fill="#fff" fill-opacity=".2" />
    <circle cx="1303.4" cy="598.399" r="1" transform="rotate(53.367 1303.4 598.399)" fill="#fff" fill-opacity=".2" />
    <circle cx="984.369" cy="157.125" r="1" transform="rotate(-12.282 984.369 157.125)" fill="#fff" fill-opacity=".2" />
    <circle cx="1192.2" cy="357.559" r="1" transform="rotate(-178.404 1192.2 357.559)" fill="#fff" fill-opacity=".2" />
    <circle cx="227.07" cy="318.211" r="1" transform="rotate(166.122 227.07 318.211)" fill="#fff" fill-opacity=".2" />
    <circle cx="286.029" cy="687.916" r="1" transform="rotate(65.649 286.029 687.916)" fill="#fff" fill-opacity=".2" />
    <circle cx="80.323" cy="465.323" r="1" transform="rotate(65.649 80.323 465.323)" fill="#fff" fill-opacity=".2" />
    <circle cx="1032.52" cy="486.245" r="1" transform="rotate(-112.755 1032.52 486.245)" fill="#fff"
        fill-opacity=".2" />
    <circle cx="840.585" cy="391.945" r="1" transform="rotate(53.367 840.585 391.945)" fill="#fff" fill-opacity=".2" />
    <circle cx="114" cy="195" r="1" fill="#fff" fill-opacity=".2" />
    <circle cx="1416.15" cy="347.116" r="1" transform="rotate(1.817 1416.15 347.116)" fill="#fff" fill-opacity=".2" />
    <circle cx="633.353" cy="678.213" r="1" transform="rotate(166.122 633.353 678.213)" fill="#fff" fill-opacity=".2" />
    <ellipse cx="1.146" cy="1.068" rx="1.146" ry="1.068"
        transform="matrix(-.99938 .03513 -.04046 -.99918 796.376 590.133)" fill="#fff" fill-opacity=".2" />
    <circle cx="494.404" cy="25.404" r="1" transform="rotate(-128.23 494.404 25.404)" fill="#fff" fill-opacity=".2" />
    <circle cx="521.404" cy="618.404" r="1" transform="rotate(-128.23 521.404 618.404)" fill="#fff" fill-opacity=".2" />
    <circle cx="461.219" cy="705.472" r="1" transform="rotate(-128.23 461.219 705.472)" fill="#fff" fill-opacity=".2" />
    <circle cx="1258.51" cy="472.951" r="1.5" transform="rotate(-178.404 1258.51 472.951)" fill="#fff"
        fill-opacity=".2" />
    <circle cx="1339.55" cy="312.547" r="1.5" transform="rotate(1.817 1339.55 312.547)" fill="#fff" fill-opacity=".2" />
    <circle cx="694.765" cy="151.727" r="1.5" transform="rotate(166.122 694.765 151.727)" fill="#fff"
        fill-opacity=".2" />
    <ellipse cx="1.719" cy="1.601" rx="1.719" ry="1.601" transform="matrix(-.99938 .03513 -.04046 -.99918 814.565 94.2)"
        fill="#fff" fill-opacity=".2" />
    <circle cx="238.985" cy="176.985" r="1.5" transform="rotate(65.649 238.985 176.985)" fill="#fff"
        fill-opacity=".2" />
    <circle cx="1080.69" cy="446.503" r="1.5" transform="rotate(-112.755 1080.69 446.503)" fill="#fff"
        fill-opacity=".2" />
    <circle cx="609.86" cy="245.84" r="1.5" transform="rotate(166.122 609.86 245.84)" fill="#fff" fill-opacity=".2" />
    <circle cx="1114.78" cy="677.785" r="1.5" transform="rotate(-12.282 1114.78 677.785)" fill="#fff"
        fill-opacity=".2" />
    <circle cx="1478.78" cy="864.785" r="1.5" transform="rotate(-12.282 1478.78 864.785)" fill="#fff"
        fill-opacity=".2" />
    <circle cx="1035.56" cy="295.911" r="1.5" transform="rotate(-12.282 1035.56 295.911)" fill="#fff"
        fill-opacity=".2" />
    <circle cx="920.747" cy="473.777" r="1.5" transform="rotate(53.367 920.747 473.777)" fill="#fff"
        fill-opacity=".2" />
    <circle cx="958.099" cy="801.099" r="1.5" transform="rotate(53.367 958.099 801.099)" fill="#fff"
        fill-opacity=".2" />
    <circle cx="23" cy="756" r="1" fill="#fff" fill-opacity=".2" />
    <circle cx="660.406" cy="572.406" r="1" transform="rotate(-38.96 660.406 572.406)" fill="#fff" fill-opacity=".2" />
    <circle cx="598.059" cy="514.423" r="1" transform="rotate(-12.282 598.059 514.423)" fill="#fff" fill-opacity=".2" />
    <ellipse cx="1.146" cy="1.068" rx="1.146" ry="1.068"
        transform="matrix(-.99938 .03513 -.04046 -.99918 977.376 576.133)" fill="#fff" fill-opacity=".2" />
    <ellipse cx="1.146" cy="1.068" rx="1.146" ry="1.068"
        transform="matrix(-.99938 .03513 -.04046 -.99918 1066.38 12.133)" fill="#fff" fill-opacity=".2" />
    <circle cx="739.824" cy="430.73" r="1" transform="rotate(53.367 739.824 430.73)" fill="#fff" fill-opacity=".2" />
    <circle cx="207.159" cy="443.258" r="1" transform="rotate(-128.23 207.159 443.258)" fill="#fff" fill-opacity=".2" />
    <circle cx="283.323" cy="58.323" r="1" transform="rotate(65.649 283.323 58.323)" fill="#fff" fill-opacity=".2" />
    <circle cx="1201.53" cy="619.194" r="1" transform="rotate(53.367 1201.53 619.194)" fill="#fff" fill-opacity=".2" />
    <circle cx="1475.4" cy="610.399" r="1" transform="rotate(53.367 1475.4 610.399)" fill="#fff" fill-opacity=".2" />
    <circle cx="1411.4" cy="700.399" r="1" transform="rotate(53.367 1411.4 700.399)" fill="#fff" fill-opacity=".2" />
    <circle cx="735.399" cy="315.399" r="1" transform="rotate(53.367 735.399 315.399)" fill="#fff" fill-opacity=".2" />
    <circle cx="224.323" cy="575.323" r="1" transform="rotate(65.649 224.323 575.323)" fill="#fff" fill-opacity=".2" />
    <circle cx="1162.93" cy="115.512" r="1" transform="rotate(53.367 1162.93 115.512)" fill="#fff" fill-opacity=".2" />
    <circle cx="103" cy="55" r="2" fill="#fff" fill-opacity=".2" />
    <circle cx="103" cy="607" r="2" fill="#fff" fill-opacity=".2" />
    <circle cx="677.612" cy="811.487" r="2" transform="rotate(166.122 677.612 811.487)" fill="#fff" fill-opacity=".2" />
    <circle cx="431.421" cy="555.421" r="2" transform="rotate(166.122 431.421 555.421)" fill="#fff" fill-opacity=".2" />
    <circle cx="836.421" cy="216.421" r="2" transform="rotate(166.122 836.421 216.421)" fill="#fff" fill-opacity=".2" />
    <circle cx="304.612" cy="519.487" r="2" transform="rotate(166.122 304.612 519.487)" fill="#fff" fill-opacity=".2" />
    <circle cx="375.421" cy="796.421" r="2" transform="rotate(166.122 375.421 796.421)" fill="#fff" fill-opacity=".2" />
    <circle cx="552.421" cy="349.421" r="2" transform="rotate(166.122 552.421 349.421)" fill="#fff" fill-opacity=".2" />
    <circle cx="330.421" cy="400.421" r="2" transform="rotate(166.122 330.421 400.421)" fill="#fff" fill-opacity=".2" />
    <circle cx="1024.63" cy="654.306" r="2" transform="rotate(-12.282 1024.63 654.306)" fill="#fff" fill-opacity=".2" />
    <circle cx="1299.38" cy="834.38" r="2" transform="rotate(-12.282 1299.38 834.38)" fill="#fff" fill-opacity=".2" />
    <ellipse cx="2.291" cy="2.135" rx="2.291" ry="2.135"
        transform="matrix(-.99938 .03513 -.04046 -.99918 805.72 751.318)" fill="#fff" fill-opacity=".2" />
    <ellipse cx="2.291" cy="2.135" rx="2.291" ry="2.135"
        transform="matrix(-.99938 .03513 -.04046 -.99918 909.753 674.267)" fill="#fff" fill-opacity=".2" />
    <circle cx="63.026" cy="350.5" r="2" transform="rotate(166.122 63.026 350.5)" fill="#fff" fill-opacity=".2" />
    <circle cx="1262.38" cy="235.38" r="2" transform="rotate(-12.282 1262.38 235.38)" fill="#fff" fill-opacity=".2" />
    <circle cx="1360.28" cy="500.922" r="2" transform="rotate(167.939 1360.28 500.922)" fill="#fff" fill-opacity=".2" />
    <circle cx="348.054" cy="163.824" r="2" transform="rotate(65.649 348.054 163.824)" fill="#fff" fill-opacity=".2" />
    <circle cx="1461.8" cy="437.798" r="2" transform="rotate(53.367 1461.8 437.798)" fill="#fff" fill-opacity=".2" />
    <circle cx="1285.8" cy="735.798" r="2" transform="rotate(53.367 1285.8 735.798)" fill="#fff" fill-opacity=".2" />
    <circle cx="1461.8" cy="437.798" r="2" transform="rotate(53.367 1461.8 437.798)" fill="#fff" fill-opacity=".2" />
    <circle cx="1285.8" cy="735.798" r="2" transform="rotate(53.367 1285.8 735.798)" fill="#fff" fill-opacity=".2" />
    <circle cx="84.799" cy="855.799" r="2" transform="rotate(-126.67 84.799 855.799)" fill="#fff" fill-opacity=".2" />
    <circle cx="161.647" cy="783.647" r="2" transform="rotate(65.649 161.647 783.647)" fill="#fff" fill-opacity=".2" />
    <circle cx="578.307" cy="102.064" r="2" transform="rotate(-128.23 578.307 102.064)" fill="#fff" fill-opacity=".2" />
    <circle cx="1119.51" cy="262.434" r="2" transform="rotate(53.367 1119.51 262.434)" fill="#fff" fill-opacity=".2" />
    <circle cx="1455.8" cy="29.798" r="2" transform="rotate(53.367 1455.8 29.798)" fill="#fff" fill-opacity=".2" />
    <circle cx="1119.51" cy="814.434" r="2" transform="rotate(53.367 1119.51 814.434)" fill="#fff" fill-opacity=".2" />
</svg>